#!OML:ASF F:\twosubjects\two\Thursday\Session 1\justin.ASF
:FULLY-SPECIFIED
:DEGREES
401
root 7.36699 9.14075 -21.7381 -33.4278 -0.530645 -1.5242
lowerback 33.4955 4.02872 -2.85069
upperback 15.1009 4.27321 0.0714267
thorax -0.697209 1.99901 0.296845
lowerneck -21.6468 -7.10447 -15.9216
upperneck 1.4849 -6.22334 11.6567
head 4.72609 -2.47171 5.62724
rclavicle 4.96962e-015 -1.27222e-014
rhumerus 8.76441 29.3874 -77.5823
rradius 50.9818
rwrist 20.0226
rhand 4.4842 10.6047
rfingers 7.12502
rthumb 29.8779 -17.0046
lclavicle 4.96962e-015 -1.27222e-014
lhumerus 19.462 -33.6774 78.2041
lradius 53.09
lwrist -42.5685
lhand 21.8123 42.6313
lfingers 7.12502
lthumb 46.2195 65.6338
rfemur -58.4686 -20.9981 5.90243
rtibia 86.2924
rfoot 6.77952 6.74845
rtoes -8.03209
lfemur -60.2443 20.2032 -3.57541
ltibia 87.7402
lfoot 4.36228 -22.8226
ltoes -5.44814
402
root 7.36719 9.13903 -21.733 -33.2771 -0.442587 -1.3653
lowerback 33.4922 4.01936 -2.96888
upperback 14.9963 4.21652 -0.107353
thorax -0.799617 1.97377 0.186676
lowerneck -21.5149 -7.03199 -15.9911
upperneck 1.36272 -6.15106 11.9634
head 4.67676 -2.42078 5.75132
rclavicle -1.78906e-015 6.36111e-015
rhumerus 8.70717 29.1623 -78.0078
rradius 50.7983
rwrist 20.0907
rhand 4.70942 10.6957
rfingers 7.12502
rthumb 30.0928 -16.8747
lclavicle -1.78906e-015 6.36111e-015
lhumerus 19.3336 -33.7042 78.0734
lradius 53.1631
lwrist -42.4717
lhand 21.7493 42.6975
lfingers 7.12502
lthumb 46.161 65.7246
rfemur -58.693 -20.985 5.75129
rtibia 86.3277
rfoot 6.70165 6.70276
rtoes -8.01526
lfemur -60.3267 20.2105 -3.80168
ltibia 87.7118
lfoot 4.38848 -22.7818
ltoes -5.7223
403
root 7.36773 9.14329 -21.7356 -33.1349 -0.454973 -1.44897
lowerback 33.4587 3.94866 -2.83764
upperback 14.9451 4.16213 -0.218798
thorax -0.827614 1.95896 0.0191073
lowerneck -21.7631 -7.04143 -15.8347
upperneck 1.55106 -6.18211 12.0167
head 4.77515 -2.42533 5.7379
rclavicle -2.74323e-014 1.27222e-014
rhumerus 8.48419 28.6858 -78.5272
rradius 50.8133
rwrist 20.4026
rhand 5.12685 10.9497
rfingers 7.12502
rthumb 30.491 -16.5476
lclavicle -2.74323e-014 1.27222e-014
lhumerus 19.3522 -33.8172 77.8595
lradius 53.1893
lwrist -42.326
lhand 21.643 42.8128
lfingers 7.12502
lthumb 46.0624 65.8813
rfemur -58.8459 -21.0313 5.90746
rtibia 86.3162
rfoot 6.57609 6.75467
rtoes -8.68105
lfemur -60.5247 20.2219 -3.77694
ltibia 87.7165
lfoot 4.56387 -22.6962
ltoes -5.34993
404
root 7.37103 9.1466 -21.7372 -33.1772 -0.628242 -1.82767
lowerback 33.4921 3.87705 -2.49912
upperback 15.0176 4.17811 -0.0769685
thorax -0.756321 1.97709 -0.0140177
lowerneck -22.0829 -7.07966 -15.774
upperneck 1.87722 -6.19831 11.8067
head 4.91377 -2.43935 5.65268
rclavicle 3.29983e-014 -7.15625e-015
rhumerus 8.4281 28.3177 -78.5768
rradius 50.9333
rwrist 20.6716
rhand 5.67654 11.3665
rfingers 7.12502
rthumb 31.0151 -16.0322
lclavicle 3.29983e-014 -7.15625e-015
lhumerus 19.4747 -33.7664 77.9409
lradius 53.1786
lwrist -42.4096
lhand 21.7491 42.7984
lfingers 7.12502
lthumb 46.1609 65.8256
rfemur -58.7181 -21.0248 6.34414
rtibia 86.2736
rfoot 6.63737 6.65315
rtoes -8.89526
lfemur -60.5208 20.1902 -3.30612
ltibia 87.7442
lfoot 4.71736 -22.7036
ltoes -3.82094
405
root 7.37152 9.15228 -21.7398 -33.2203 -0.663047 -1.79351
lowerback 33.4935 3.95387 -2.64181
upperback 15.0464 4.23539 0.00355287
thorax -0.739606 1.99373 0.127345
lowerneck -22.0991 -7.13511 -15.9166
upperneck 2.06483 -6.23675 11.744
head 4.98072 -2.46556 5.64913
rclavicle -5.76476e-015 -1.59028e-015
rhumerus 8.36833 28.1502 -78.5388
rradius 51.0083
rwrist 20.8099
rhand 5.14187 11.3692
rfingers 7.12502
rthumb 30.5053 -16.1254
lclavicle -5.76476e-015 -1.59028e-015
lhumerus 19.3355 -33.6081 78.2334
lradius 53.291
lwrist -42.736
lhand 22.2761 42.4708
lfingers 7.12502
lthumb 46.6493 65.29
rfemur -58.635 -20.9705 6.35419
rtibia 86.2204
rfoot 6.71448 6.58319
rtoes -8.88291
lfemur -60.4922 20.1148 -3.29616
ltibia 87.7996
lfoot 4.42166 -22.7506
ltoes -4.66017
406
root 7.37065 9.15626 -21.7409 -33.1124 -0.677149 -1.57479
lowerback 33.3476 4.0759 -2.95169
upperback 15.0106 4.30118 -0.00352427
thorax -0.742267 2.01028 0.266761
lowerneck -22.0809 -7.18822 -16.054
upperneck 2.22156 -6.28039 11.716
head 5.03544 -2.4929 5.65602
rclavicle -3.97569e-015 -1.43125e-014
rhumerus 8.24143 28.1415 -78.5308
rradius 51.0817
rwrist 20.823
rhand 3.82049 11.4445
rfingers 7.12502
rthumb 29.2443 -16.277
lclavicle -3.97569e-015 -1.43125e-014
lhumerus 19.0214 -33.5393 78.4906
lradius 53.4767
lwrist -42.8585
lhand 22.459 42.5444
lfingers 7.12502
lthumb 46.8186 65.2902
rfemur -58.8136 -20.8909 6.23986
rtibia 86.2043
rfoot 6.77223 6.5847
rtoes -8.76011
lfemur -60.6736 20.207 -3.57251
ltibia 87.864
lfoot 4.01143 -22.6125
ltoes -6.86153
